<?xml version="1.0" encoding="UTF-8"?>
<svg id="Layer_2" xmlns="http://www.w3.org/2000/svg" viewBox="0 0 273.03 153.16">
  <defs>
    <style>
      .cls-1 {
        fill: #fd6a00;
      }
    </style>
  </defs>
  <g id="Layer_1-2" data-name="Layer_1">
    <g>
      <path class="cls-1" d="M28.96,120.99c-7.56,0-15.12-.09-22.67.04-3.26.06-6.08-1.18-6.23-5.56-.1-2.79-.05-5.59,0-8.39.05-3.16,2.85-5.12,5.68-5.1,3,.02,6-.09,9,.03,3.74.15,5.93-1.94,7-4.7.94-2.42,1.91-4.82,2.9-7.21,1.67-4.01.8-7.52-2.21-10.67-4.22-4.4-6.98-9.6-7.92-15.69-.98-6.37-.17-12.46,2.85-18.2,2.39-4.56,5.68-8.32,10.03-11.11,7.77-4.99,16.09-6.19,24.96-3.59,1.65.48,3.28,1,5.04.91,1.08-.05,1.98-.38,2.8-1.14,1.86-1.75,3.41-3.81,5.49-5.34,2.4-1.77,4.24-1.71,6.38.4,2.28,2.24,4.54,4.5,6.78,6.78,1.92,1.94,1.97,4.2.2,6.3-.72.86-1.57,1.57-2.42,2.29-1.55,1.32-2.73,2.99-3.97,4.59-1.03,1.34-1.06,2.89-.67,4.45,1.47,5.95,1.68,11.89-.12,17.83-.27.88-.6,1.71-.97,2.54-1.2,2.69-2.59,5.3-4.53,7.52-2.13,2.44-4.6,4.5-7.38,6.22-3.17,1.95-6.61,3.09-10.18,3.99-3.01.76-4.63,2.91-5.44,5.8-.32,1.15-.77,2.26-1.18,3.38-.94,2.6.4,4.57,3.2,4.62,3.08.05,6.16-.01,9.23.08,7.05.21,13.72,1.85,19.81,5.54,5.69,3.45,10.15,8.08,13.21,13.98,2.6,5.02,3.9,10.42,3.97,16.08.04,3.4.02,6.8,0,10.2-.02,3.02-2.26,5.24-5.31,5.26-2.96.02-5.92-.07-8.88.02-3.39.11-4.77-1.79-5.04-4.9-.28-3.23-.11-6.47-.12-9.71-.02-8.58-4.81-14.69-13.12-16.82-2.23-.57-4.49-.71-6.76-.72-7.8-.05-15.6-.02-23.39-.02ZM32.46,58.98c.28,6.06,4.76,11.22,11.17,11.28,6.08.05,11.24-5.21,11.13-11.42-.11-6.24-5.16-11.13-11.2-11.05-6.07.08-10.89,4.75-11.09,11.2Z"/>
      <path class="cls-1" d="M248.73,74.49c0,7.08,0,14.16,0,21.24,0,1.12.06,2.24.6,3.26,1.09,2.06,2.76,3.06,5.14,3.02,4.2-.07,8.4-.02,12.6-.02,1.26,0,2.43.23,3.54.9,1.76,1.07,2.02,2.77,2.05,4.56.04,2.84.06,5.68,0,8.52-.06,2.69-2.48,5.02-5.15,5.02-6.16,0-12.33.25-18.47-.12-9.06-.56-15.88-5.17-18.54-14.88-.61-2.21-.82-4.47-.82-6.75-.01-15.32,0-30.64,0-45.95,0-1.27-.1-2.46-1.34-3.24-.76-.48-1.59-.48-2.42-.5-2.04-.06-4.08,0-6.11-.11-3.33-.19-4.86-1.88-4.85-5.23,0-2.96.14-5.93-.04-8.88-.16-2.62,2.25-4.48,4.47-4.67,2.28-.19,4.55-.07,6.83-.12.52-.01,1.05-.01,1.55-.12,1.03-.21,1.76-.75,1.82-1.91.03-.48.08-.95.08-1.43,0-6.72,0-13.44.01-20.16,0-.92.06-1.84.17-2.75.27-2.33,1.71-3.85,4.01-3.99,3.79-.23,7.59-.29,11.37.08,1.82.18,3.05,1.54,3.31,3.55.12.91.18,1.83.18,2.74.01,6.88,0,13.76,0,20.64,0,2.4.91,3.33,3.34,3.33,5.24.01,10.48,0,15.72,0,2.78,0,5.09,2.1,5.17,4.9.1,3.12.08,6.24.01,9.36-.05,2.29-2.17,4.46-4.56,4.64-1.99.15-3.99.08-5.99.09-3.28.01-6.56,0-9.84,0-2.99,0-3.86.88-3.86,3.85,0,7.04,0,14.08,0,21.12Z"/>
      <path class="cls-1" d="M181.36,92.62c.11-5.27-5.28-10.41-11.02-10.58-5.95-.17-11.3-2.36-15.66-6.33-8.21-7.47-11.07-16.78-8.17-27.55,1.95-7.24,6.53-12.63,13.18-16.1,7.6-3.96,15.42-4.32,23.27-.79,3.13,1.41,6.04,3.24,8.4,5.83,1.66,1.83,1.76,4.06.03,5.79-2.54,2.53-5.11,5.04-7.9,7.31-1.54,1.26-3.72,1.24-5.33.08-1.58-1.14-3.07-2.4-5.15-2.64-2.89-.33-5.22.73-6.95,2.9-1.88,2.36-2.46,4.99-1.08,7.92,1.36,2.9,3.58,4.45,6.69,4.65,6.82.43,12.97,2.56,18.23,6.97,6.13,5.14,9.7,11.7,10.68,19.68.87,7.07-.62,13.66-4.41,19.57-5.58,8.69-13.62,13.41-24.06,13.9-5.96.28-11.47-1.07-16.62-4-3.44-1.96-6.38-4.52-8.65-7.78-1.86-2.68-1.35-4.91,1.37-6.72,2.83-1.87,5.6-3.83,8.47-5.64,2.18-1.37,4.33-.95,5.93,1.08,1.67,2.13,3.88,3.26,6.46,3.77,4.11.81,8.8-1.45,10.84-5.14,1.03-1.86,1.6-3.81,1.43-6.19Z"/>
      <path class="cls-1" d="M122.45,76.21c0,12.92-.07,25.84.04,38.76.04,4.51-2.84,6.09-6.04,6.03-2.36-.05-4.72,0-7.08,0-3.59,0-5.83-2.17-5.98-5.76-.02-.44,0-.88,0-1.32,0-25.36,0-50.72,0-76.08,0-1.11.01-2.25.25-3.33.54-2.53,1.49-3.87,5.36-3.94,3.23-.06,6.48-.16,9.71.1,1.79.14,3.25,1.7,3.52,3.82.13.99.2,1.99.2,2.98.01,12.92,0,25.84,0,38.76Z"/>
      <path class="cls-1" d="M113.02,20.11c-1.2,0-2.4,0-3.59,0-3.86,0-5.83-1.71-6.01-5.53-.15-3.07-.04-6.15-.02-9.22.01-2.66,2.29-5.34,5.61-5.29,2.59.04,5.19-.12,7.78.12,3.38.32,5.7,2.8,5.66,6.2-.03,2.99.2,5.99-.13,8.97-.32,2.85-2.5,4.75-5.33,4.75-1.32,0-2.64,0-3.95,0Z"/>
    </g>
  </g>
</svg>