<?xml version="1.0" encoding="UTF-8"?>
<svg id="Layer_2" data-name="Layer 2" xmlns="http://www.w3.org/2000/svg" viewBox="0 0 255.56 124.66">
  <defs>
    <style>
      .cls-1 {
        fill: #ec6907;
      }

      .cls-1, .cls-2, .cls-3 {
        stroke-width: 0px;
      }

      .cls-2 {
        fill: none;
      }

      .cls-3 {
        fill: #ec8507;
      }
    </style>
  </defs>
  <g id="Layer_1-2" data-name="Layer 1">
    <g>
      <g>
        <g>
          <path class="cls-3" d="M34.6,41.54v41.39l55.15-.03v-41.39l-55.15.03ZM75.94,69.11h-27.56v-13.79h27.56v13.79Z"/>
          <path class="cls-3" d="M117.03,41.64h-13.47v55.2h13.8v-13.79h41.45v-41.41h-41.78ZM144.94,69.26h-27.57v-13.82h27.57v13.82Z"/>
          <polygon class="cls-3" points="186.36 69.24 186.36 55.44 213.97 55.44 213.97 41.63 186.35 41.63 186.39 27.86 172.57 27.86 172.53 83.05 227.78 83.05 227.78 69.24 186.36 69.24"/>
        </g>
        <g>
          <path class="cls-1" d="M27.78,41.51v41.39l55.15-.03v-41.39l-55.15.03ZM69.12,69.08h-27.56v-13.79h27.56v13.79Z"/>
          <path class="cls-1" d="M110.21,41.6h-13.47v55.2h13.8v-13.79h41.45v-41.41h-41.78ZM138.12,69.22h-27.57v-13.82h27.57v13.82Z"/>
          <polygon class="cls-1" points="179.54 69.21 179.54 55.4 207.15 55.4 207.15 41.59 179.53 41.59 179.57 27.82 165.75 27.82 165.71 83.01 220.96 83.01 220.96 69.21 179.54 69.21"/>
        </g>
      </g>
      <rect class="cls-2" width="255.56" height="124.66"/>
    </g>
  </g>
</svg>